<svg xmlns="http://www.w3.org/2000/svg" xmlns:xlink="http://www.w3.org/1999/xlink" viewBox="0 0 48 28"><defs><style>.cls-1{fill:url(#New_Gradient_Swatch_1);}.cls-2{fill:#2c3e50;}</style><linearGradient id="New_Gradient_Swatch_1" y1="19.5" x2="48" y2="19.5" gradientUnits="userSpaceOnUse"><stop offset="0" stop-color="#8fd3f4"/><stop offset="1" stop-color="#84fab0"/></linearGradient></defs><g id="Layer_2" data-name="Layer 2"><g id="Layer_1-2" data-name="Layer 1"><g id="_15_user" data-name="15_user"><path class="cls-1" d="M45,16a5,5,0,1,1-5-5A5,5,0,0,1,45,16Zm-5,4a8,8,0,0,0-8,8H48A8,8,0,0,0,40,20ZM8,11a5,5,0,1,0,5,5A5,5,0,0,0,8,11Zm0,9a8,8,0,0,0-8,8H16A8,8,0,0,0,8,20Z"/><circle class="cls-2" cx="24" cy="9" r="9"/><path class="cls-2" d="M24,16A12,12,0,0,0,12,28H36A12,12,0,0,0,24,16Z"/></g></g></g></svg>