<svg id="Layer_1" data-name="Layer 1" xmlns="http://www.w3.org/2000/svg" xmlns:xlink="http://www.w3.org/1999/xlink" viewBox="0 0 215.26025 150.30322"><defs><style>.cls-1{fill:#9da4ab;}.cls-10,.cls-11,.cls-12,.cls-13,.cls-14,.cls-15,.cls-16,.cls-17,.cls-18,.cls-19,.cls-2,.cls-3,.cls-4,.cls-5,.cls-6,.cls-7,.cls-8,.cls-9{fill-rule:evenodd;}.cls-2{fill:url(#New_Gradient_Swatch_7);}.cls-3{fill:url(#New_Gradient_Swatch_7-2);}.cls-4{fill:url(#New_Gradient_Swatch_7-3);}.cls-5{fill:url(#New_Gradient_Swatch_7-4);}.cls-6{fill:url(#New_Gradient_Swatch_2);}.cls-7{fill:url(#New_Gradient_Swatch_3);}.cls-8{fill:url(#New_Gradient_Swatch_4);}.cls-9{fill:url(#New_Gradient_Swatch_4-2);}.cls-10{fill:url(#New_Gradient_Swatch_4-3);}.cls-11{fill:url(#New_Gradient_Swatch_4-4);}.cls-12{fill:url(#New_Gradient_Swatch_4-5);}.cls-13{fill:url(#New_Gradient_Swatch_4-6);}.cls-14{fill:url(#New_Gradient_Swatch_5);}.cls-15{fill:url(#New_Gradient_Swatch_5-2);}.cls-16{fill:url(#New_Gradient_Swatch_5-3);}.cls-17{fill:url(#New_Gradient_Swatch_5-4);}.cls-18{fill:url(#New_Gradient_Swatch_5-5);}.cls-19{fill:url(#New_Gradient_Swatch_5-6);}</style><radialGradient id="New_Gradient_Swatch_7" cx="265.25356" cy="153.15851" r="21.88364" gradientUnits="userSpaceOnUse"><stop offset="0" stop-color="#fff"/><stop offset="0.5" stop-color="#fddc7f" stop-opacity="0.5"/><stop offset="1" stop-color="#fddc7f"/></radialGradient><radialGradient id="New_Gradient_Swatch_7-2" cx="338.99999" cy="119.64278" r="100.00019" xlink:href="#New_Gradient_Swatch_7"/><radialGradient id="New_Gradient_Swatch_7-3" cx="338.33403" cy="132.97559" r="62.05813" xlink:href="#New_Gradient_Swatch_7"/><radialGradient id="New_Gradient_Swatch_7-4" cx="311.32425" cy="139.90734" r="59.67582" xlink:href="#New_Gradient_Swatch_7"/><radialGradient id="New_Gradient_Swatch_2" cx="300.32277" cy="150.57486" r="67.67832" gradientUnits="userSpaceOnUse"><stop offset="0" stop-color="#fff"/><stop offset="0.33" stop-color="#fff"/><stop offset="0.66" stop-color="#fff" stop-opacity="0"/><stop offset="1" stop-color="#fff" stop-opacity="0"/></radialGradient><linearGradient id="New_Gradient_Swatch_3" x1="299.74095" y1="55.30891" x2="299.74095" y2="191.98602" gradientUnits="userSpaceOnUse"><stop offset="0" stop-color="#fff"/><stop offset="1" stop-color="#fff" stop-opacity="0"/></linearGradient><radialGradient id="New_Gradient_Swatch_4" cx="292.16557" cy="228.63573" r="21.77593" gradientUnits="userSpaceOnUse"><stop offset="0" stop-color="#fff"/><stop offset="0.5" stop-color="#9cd2f2" stop-opacity="0.5"/><stop offset="1" stop-color="#9cd2f2"/></radialGradient><radialGradient id="New_Gradient_Swatch_4-2" cx="168.98656" cy="203.80077" r="100.00308" gradientTransform="translate(135.07322 426.38565) rotate(-120.00073)" xlink:href="#New_Gradient_Swatch_4"/><radialGradient id="New_Gradient_Swatch_4-3" cx="168.32065" cy="217.13396" r="62.06077" gradientTransform="translate(135.07322 426.38565) rotate(-120.00073)" xlink:href="#New_Gradient_Swatch_4"/><radialGradient id="New_Gradient_Swatch_4-4" cx="141.31006" cy="224.06571" r="59.67702" gradientTransform="translate(135.07322 426.38565) rotate(-120.00073)" xlink:href="#New_Gradient_Swatch_4"/><radialGradient id="New_Gradient_Swatch_4-5" cx="130.30846" cy="234.73349" r="67.67957" gradientTransform="translate(135.07322 426.38565) rotate(-120.00073)" xlink:href="#New_Gradient_Swatch_4"/><radialGradient id="New_Gradient_Swatch_4-6" cx="129.72722" cy="240.79602" r="34.71554" gradientTransform="translate(135.07322 426.38565) rotate(-120.00073)" xlink:href="#New_Gradient_Swatch_4"/><radialGradient id="New_Gradient_Swatch_5" cx="342.74068" cy="168.64311" r="22.10587" gradientUnits="userSpaceOnUse"><stop offset="0" stop-color="#fff"/><stop offset="0.5" stop-color="#abd6aa" stop-opacity="0.5"/><stop offset="1" stop-color="#abd6aa"/></radialGradient><radialGradient id="New_Gradient_Swatch_5-2" cx="186.6084" cy="418.58872" r="100.00113" gradientTransform="translate(789.49278 293.47915) rotate(120.00073)" xlink:href="#New_Gradient_Swatch_5"/><radialGradient id="New_Gradient_Swatch_5-3" cx="185.94213" cy="431.92198" r="62.05719" gradientTransform="translate(789.49278 293.47915) rotate(120.00073)" xlink:href="#New_Gradient_Swatch_5"/><radialGradient id="New_Gradient_Swatch_5-4" cx="158.93065" cy="438.85348" r="59.67678" gradientTransform="translate(789.49278 293.47915) rotate(120.00073)" xlink:href="#New_Gradient_Swatch_5"/><radialGradient id="New_Gradient_Swatch_5-5" cx="147.92884" cy="449.52084" r="67.67995" gradientTransform="translate(789.49278 293.47915) rotate(120.00073)" xlink:href="#New_Gradient_Swatch_5"/><radialGradient id="New_Gradient_Swatch_5-6" cx="147.34836" cy="455.58309" r="34.71522" gradientTransform="translate(789.49278 293.47915) rotate(120.00073)" xlink:href="#New_Gradient_Swatch_5"/></defs><path class="cls-1" d="M379.87793,173.68849a6.13887,6.13887,0,0,1-1.335-.13134,3.561,3.561,0,0,1-.99024-.36475,1.82551,1.82551,0,0,1-.62207-.562,1.30422,1.30422,0,0,1-.21777-.73731,1.27628,1.27628,0,0,1,.18066-.65722,1.77992,1.77992,0,0,1,.48731-.53272,2.661,2.661,0,0,1,.667-.35742l.76563.30615q-.19484.14356-.38282.2793a1.23113,1.23113,0,0,0-.2998.30029.6761.6761,0,0,0-.11231.39307.44324.44324,0,0,0,.14942.3291,1.13964,1.13964,0,0,0,.41992.23633,3.12026,3.12026,0,0,0,.62988.13574,6.82512,6.82512,0,0,0,.7959.04248,4.00691,4.00691,0,0,0,.96-.09765,1.5102,1.5102,0,0,0,.59961-.272.51068.51068,0,0,0,.21-.398.52579.52579,0,0,0-.12011-.35742.74328.74328,0,0,0-.43457-.19726,5.19725,5.19725,0,0,0-.88575-.05811c-.31933,0-.63476-.01465-.94433-.04394a5.90086,5.90086,0,0,1-.87793-.146,3.14388,3.14388,0,0,1-.72754-.27,1.3538,1.3538,0,0,1-.48731-.416,1.02073,1.02073,0,0,1-.17285-.59863,1.28213,1.28213,0,0,1,.293-.84326,3.60661,3.60661,0,0,1,.71289-.65137l.7793.44971c-.09961.08887-.1875.16309-.2627.22217a.92941.92941,0,0,0-.17187.17041.38014.38014,0,0,0-.06055.229c0,.1167.07813.21436.23242.292a2.42272,2.42272,0,0,0,.76563.1753,13.21179,13.21179,0,0,0,1.38769.0581,3.87324,3.87324,0,0,1,1.125.13916,1.80064,1.80064,0,0,1,.71973.39356,1.59364,1.59364,0,0,1,.39746.58447,1.93063,1.93063,0,0,1-.06738,1.53271,2.09364,2.09364,0,0,1-.60059.72266,3.093,3.093,0,0,1-1.02734.51123A5.11434,5.11434,0,0,1,379.87793,173.68849Zm-.13477-4.90527a2.85065,2.85065,0,0,1-1.32714-.30517,2.35469,2.35469,0,0,1-.93067-.83545,2.25092,2.25092,0,0,1,0-2.36914,2.4687,2.4687,0,0,1,.93067-.8501,2.74411,2.74411,0,0,1,1.32714-.31983,2.69072,2.69072,0,0,1,1.32715.31983,2.49576,2.49576,0,0,1,.915.8501,2.24537,2.24537,0,0,1,0,2.36914,2.37716,2.37716,0,0,1-.915.83545A2.79489,2.79489,0,0,1,379.74316,168.78322Zm-.01464-1.23a1.23187,1.23187,0,0,0,.59179-.14014,1.0929,1.0929,0,0,0,.41992-.39257,1.03592,1.03592,0,0,0,.15821-.561.96586.96586,0,0,0-.15821-.54687,1.13223,1.13223,0,0,0-.41992-.37891,1.23749,1.23749,0,0,0-.59179-.14014,1.12582,1.12582,0,0,0-.5625.14746,1.25181,1.25181,0,0,0-.42774.38526.913.913,0,0,0-.165.5332,1.01861,1.01861,0,0,0,.15723.54688,1.16138,1.16138,0,0,0,.998.54687Zm2.1748-1.99463-.64551-.79541a2.964,2.964,0,0,1,2.13086-.65967l.16406,1.16993a2.39993,2.39993,0,0,0-.88476-.01514A1.91339,1.91339,0,0,0,381.90332,165.55861Z" transform="translate(-197.79834 -110.20998)"/><path class="cls-1" d="M387.52832,171.22853a3.25917,3.25917,0,0,1-1.6875-.44726,3.17177,3.17177,0,0,1-1.19238-1.25342,3.86051,3.86051,0,0,1-.43555-1.86182,3.767,3.767,0,0,1,.43555-1.81787,3.32889,3.32889,0,0,1,1.19238-1.27539,3.2953,3.2953,0,0,1,3.38965,0,3.3857,3.3857,0,0,1,1.20019,1.27539,3.7164,3.7164,0,0,1,.44239,1.81787,3.80842,3.80842,0,0,1-.44239,1.86182,3.22449,3.22449,0,0,1-1.20019,1.25342A3.28686,3.28686,0,0,1,387.52832,171.22853Zm0-1.35009a1.34476,1.34476,0,0,0,.85449-.28174,1.96675,1.96675,0,0,0,.57813-.78076,3.21376,3.21376,0,0,0,0-2.3208,1.86028,1.86028,0,0,0-.57813-.75928,1.39109,1.39109,0,0,0-.85449-.26758,1.3578,1.3578,0,0,0-.81738.26758,1.82384,1.82384,0,0,0-.585.75928,2.87055,2.87055,0,0,0-.21778,1.17089,2.94943,2.94943,0,0,0,.21,1.14991,1.8696,1.8696,0,0,0,.57715.78076A1.33526,1.33526,0,0,0,387.52832,169.87844Z" transform="translate(-197.79834 -110.20998)"/><path class="cls-1" d="M395.02832,171.22853a3.25917,3.25917,0,0,1-1.6875-.44726,3.17177,3.17177,0,0,1-1.19238-1.25342,3.86051,3.86051,0,0,1-.43555-1.86182,3.767,3.767,0,0,1,.43555-1.81787,3.32889,3.32889,0,0,1,1.19238-1.27539,3.2953,3.2953,0,0,1,3.38965,0,3.3857,3.3857,0,0,1,1.20019,1.27539,3.7164,3.7164,0,0,1,.44239,1.81787,3.80842,3.80842,0,0,1-.44239,1.86182,3.22449,3.22449,0,0,1-1.20019,1.25342A3.28686,3.28686,0,0,1,395.02832,171.22853Zm0-1.35009a1.34476,1.34476,0,0,0,.85449-.28174,1.96675,1.96675,0,0,0,.57813-.78076,3.21376,3.21376,0,0,0,0-2.3208,1.86028,1.86028,0,0,0-.57813-.75928,1.39109,1.39109,0,0,0-.85449-.26758,1.3578,1.3578,0,0,0-.81738.26758,1.82384,1.82384,0,0,0-.585.75928,2.87055,2.87055,0,0,0-.21778,1.17089,2.94943,2.94943,0,0,0,.21,1.14991,1.8696,1.8696,0,0,0,.57715.78076A1.33526,1.33526,0,0,0,395.02832,169.87844Z" transform="translate(-197.79834 -110.20998)"/><path class="cls-1" d="M401.08105,171.0093a2.57337,2.57337,0,0,1-.92285-.67139,3.27893,3.27893,0,0,1-.63769-1.124,5.41867,5.41867,0,0,1-.00684-3.11719,3.16153,3.16153,0,0,1,.62207-1.10987,2.52767,2.52767,0,0,1,.92285-.66406,2.92809,2.92809,0,0,1,1.13965-.21924,2.46728,2.46728,0,0,1,.667.08985,2.07191,2.07191,0,0,1,.58594.26269,1.30748,1.30748,0,0,1,.42676.47217v-3.79492h1.81543v.13379a.38123.38123,0,0,0-.11231.19336,1.87638,1.87638,0,0,0-.02246.35693l-.01562,8.36914a3.36823,3.36823,0,0,0,.03027.46094,1.67292,1.67292,0,0,0,.13477.46094h-1.665a2.17028,2.17028,0,0,1-.10449-.28565,1.11911,1.11911,0,0,1-.03809-.23047c-.00488-.07959-.00684-.17724-.00684-.29394a1.76829,1.76829,0,0,1-.45019.5249,1.8204,1.8204,0,0,1-.585.30762,2.27519,2.27519,0,0,1-.67481.09765A2.79689,2.79689,0,0,1,401.08105,171.0093Zm1.99512-1.28223a1.12743,1.12743,0,0,0,.43457-.40967,2.01307,2.01307,0,0,0,.25488-.69678,5.136,5.136,0,0,0,.083-.96972,4.37748,4.37748,0,0,0-.15039-1.24317,1.42882,1.42882,0,0,0-.46484-.74023,1.28635,1.28635,0,0,0-.81055-.24414,1.32754,1.32754,0,0,0-.62988.15088,1.21517,1.21517,0,0,0-.46485.43847,2.30323,2.30323,0,0,0-.27734.68946,3.83342,3.83342,0,0,0-.09766.90527,3.23208,3.23208,0,0,0,.20215,1.207,1.83622,1.83622,0,0,0,.54785.77588,1.20416,1.20416,0,0,0,.76465.273A1.30511,1.30511,0,0,0,403.07617,169.72707Z" transform="translate(-197.79834 -110.20998)"/><path class="cls-1" d="M408.96289,171.11574a4.15129,4.15129,0,0,1-1.08008-.35986,3.90968,3.90968,0,0,1-.915-.6377l.75-1.37988.06055-.12012.12012.0752c.02929.07031.05957.14746.08984.23242a.80058.80058,0,0,0,.22461.29248,2.90332,2.90332,0,0,0,.85547.49512,3.23839,3.23839,0,0,0,1.13965.18017,2.41174,2.41174,0,0,0,.71289-.09131,1.0561,1.0561,0,0,0,.45019-.25146.51516.51516,0,0,0,.15723-.37061.535.535,0,0,0-.08984-.30713.77419.77419,0,0,0-.28516-.23437,3.903,3.903,0,0,0-.50977-.21191q-.31494-.10987-.75-.2417a6.26006,6.26006,0,0,1-1.32812-.4751,2.37545,2.37545,0,0,1-.86231-.69483,1.56562,1.56562,0,0,1-.2998-.95117,1.6117,1.6117,0,0,1,.33691-1.00927,2.275,2.275,0,0,1,.95313-.69532,3.77571,3.77571,0,0,1,1.45508-.25586,4.85073,4.85073,0,0,1,.82519.06739,4.42261,4.42261,0,0,1,.74219.19482,3.18437,3.18437,0,0,1,.66016.33008,3.70185,3.70185,0,0,1,.57714.47266l-.82519,1.15478-.10449.12012-.10547-.08985a.75939.75939,0,0,0-.06738-.23242,1.00587,1.00587,0,0,0-.23243-.27783,2.025,2.025,0,0,0-.68261-.33008,2.861,2.861,0,0,0-.75782-.105,2.274,2.274,0,0,0-.877.15332.5034.5034,0,0,0-.36719.47315.46.46,0,0,0,.165.34375,1.62925,1.62925,0,0,0,.54688.29248q.38232.13915,1.01269.30029a6.32868,6.32868,0,0,1,1.37207.50439,2.006,2.006,0,0,1,.78028.68067,1.698,1.698,0,0,1,.248.92138,1.90071,1.90071,0,0,1-.33007,1.06836,2.25755,2.25755,0,0,1-.96778.79,3.79229,3.79229,0,0,1-1.583.29248A6.40869,6.40869,0,0,1,408.96289,171.11574Z" transform="translate(-197.79834 -110.20998)"/><path class="cls-2" d="M278.23289,129.3052c-10.6514-6.8193-20.8213-6.2813-25.27289,8.0312-2.58551,13.0684,2.45749,29.8233,9.79929,43.917a108.77836,108.77836,0,0,1,9.4018-15.06253C266.03859,155.3267,257.27829,129.3482,278.23289,129.3052Z" transform="translate(-197.79834 -110.20998)"/><path class="cls-3" d="M264.78559,120.3179c-6.8994,3.9834-10.5844,10.1484-11.9497,17.4219,7.355-27.6211,33.2237-10.7051,49.2246,11.7089,7.6778,10.754,13.0831,22.7735,13.0831,31.74713,0,3.2666-1.6075,8.57027-4.292,14.55959a85.72437,85.72437,0,0,0,16.7617.124c2.2676-5.73632,3.541-10.88379,3.541-14.68359,0-7.51763-4.8848-20.15823-12.5801-32.24023C305.40329,128.272,284,109.2251,264.78559,120.3179Z" transform="translate(-197.79834 -110.20998)"/><path class="cls-4" d="M298.80079,149.8696a84.34673,84.34673,0,0,1,9.1289,16.6739,86.11707,86.11707,0,0,1,18.9512-1.8965,107.21609,107.21609,0,0,0-8.3067-15.6914A105.2237,105.2237,0,0,0,298.80079,149.8696Z" transform="translate(-197.79834 -110.20998)"/><path class="cls-5" d="M252.83589,137.7398c7.4156-24.5284,31.1402-9.0655,45.9649,12.1298,7.28221,10.4102,12.417,22.2051,12.417,31.32133a48.82323,48.82323,0,0,1-2.6016,14.27539q1.1031.1626,2.2354.2891c2.6845-5.98932,4.292-11.293,4.292-14.55959,0-8.97363-5.4053-20.99313-13.0831-31.74713C286.05959,127.0347,260.19089,110.1187,252.83589,137.7398Z" transform="translate(-197.79834 -110.20998)"/><path class="cls-6" d="M252.83589,137.7398c10.958-39.3506,61.37311,15.7783,61.37311,43.456,0,3.25-1.53521,8.51759-4.11131,14.47069.25.0303.5009.06058.7539.0889,2.6845-5.98932,4.292-11.293,4.292-14.55959C315.14359,153.5181,263.71969,96.8667,252.83589,137.7398Z" transform="translate(-197.79834 -110.20998)"/><path class="cls-7" d="M269.35689,119.3384c15.48-2.1709,33.1997,17.5332,41.4283,29.5381,5.79681,8.456,13.1445,21.9189,13.1445,32.31933,0,3.0215-1.2461,8.12209-3.51169,14.00289,2.166-.0195,4.32809-.1201,6.47069-.2919,1.5937-4.1221,3.23631-9.36329,3.23631-13.711,0-10.06053-7.457-23.88473-12.84961-32.29C307.94529,134.3599,288.69969,112.5913,269.35689,119.3384Z" transform="translate(-197.79834 -110.20998)"/><path class="cls-8" d="M265.82319,225.9361c-.58,12.63472,4.9707,21.17182,19.5914,17.871,12.6108-4.29488,24.5991-17.039,33.1342-30.44428a108.78424,108.78424,0,0,1-17.7456-.6113C294.45559,223.48592,276.33739,244.062,265.82319,225.9361Z" transform="translate(-197.79834 -110.20998)"/><path class="cls-9" d="M264.76369,242.07572c6.8994,3.98338,14.0805,4.0918,21.063,1.6377-27.59869,7.4414-25.8829-23.4199-14.47269-48.4844,5.47459-12.02539,13.18069-22.71682,20.95219-27.20312,2.8291-1.6338,8.2265-2.8936,14.7543-3.5635a85.64927,85.64927,0,0,0-8.2729-14.5781c-6.10159.9043-11.1963,2.376-14.4863,4.2754-6.5108,3.7588-15.0157,14.3096-21.6309,27.01463C251.34329,202.92242,245.54929,230.982,264.76369,242.07572Z" transform="translate(-197.79834 -110.20998)"/><path class="cls-10" d="M273.34809,197.84232a84.34141,84.34141,0,0,1,9.876-16.24409A86.089,86.089,0,0,1,272.106,166.1353a107.18211,107.18211,0,0,0-9.43561,15.039A105.25307,105.25307,0,0,0,273.34809,197.84232Z" transform="translate(-197.79834 -110.20998)"/><path class="cls-11" d="M285.82669,243.71342c-24.9502,5.8418-23.4214-22.4356-12.4786-45.8711,5.375-11.5117,13.0225-21.85639,20.917-26.41412a48.78294,48.78294,0,0,1,13.6646-4.8847q-.4131-1.0371-.8692-2.0811c-6.5278.6699-11.9252,1.9297-14.7543,3.5635-7.7715,4.4863-15.4776,15.17773-20.95219,27.20312C259.94379,220.29352,258.228,251.15482,285.82669,243.71342Z" transform="translate(-197.79834 -110.20998)"/><path class="cls-12" d="M285.82669,243.71342c-39.55769,10.1855-17.0225-61.04,6.9472-74.87892,2.8145-1.625,8.1436-2.9297,14.5874-3.6748-.0996-.2315-.1972-.4639-.3008-.6973-6.5278.6699-11.9252,1.9297-14.7543,3.5635C268.33639,181.86383,244.98679,254.7241,285.82669,243.71342Z" transform="translate(-197.79834 -110.20998)"/><path class="cls-13" d="M261.62989,238.606c-9.6206-12.3203-1.4155-37.5176,4.8667-50.6465,4.4248-9.24809,12.4101-22.34382,21.417-27.543,2.6162-1.5117,7.6572-2.9824,13.8828-3.9609-1.1006-1.8653-2.2686-3.6875-3.4883-5.457-4.3672.6806-9.7275,1.8789-13.4922,4.0527-8.71289,5.0293-16.956,18.4004-21.539,27.27343C255.34419,197.67732,246.11519,225.229,261.62989,238.606Z" transform="translate(-197.79834 -110.20998)"/><path class="cls-14" d="M355.708,188.33062c11.23239-5.81452,15.84959-14.89062,5.68159-25.90242-10.0253-8.7744-27.05659-12.7841-42.9335-13.4726a108.86426,108.86426,0,0,1,8.3437,15.6738C339.27049,164.7593,366.14749,170.1616,355.708,188.33062Z" transform="translate(-197.79834 -110.20998)"/><path class="cls-15" d="M370.21389,181.17823c.0019-7.96683-3.4961-14.24023-9.1114-19.06053,20.2422,20.18163-7.3418,34.125-34.7539,36.7764-13.1504,1.27142-26.2627-.05568-34.0332-4.544-2.83-1.63278-6.6191-5.67768-10.4648-10.99607a85.783,85.783,0,0,0-8.4883,14.45407c3.834,4.83212,7.6563,8.50882,10.9463,10.40822,6.5107,3.75878,19.90041,5.8487,34.21,5.2256C343.01659,212.37752,370.21389,203.36572,370.21389,181.17823Z" transform="translate(-197.79834 -110.20998)"/><path class="cls-16" d="M327.61619,195.85992a84.37591,84.37591,0,0,1-19.0058-.4297,86.15916,86.15916,0,0,1-7.8331,17.3594,107.17244,107.17244,0,0,0,17.7413.6523A105.33052,105.33052,0,0,0,327.61619,195.85992Z" transform="translate(-197.79834 -110.20998)"/><path class="cls-17" d="M361.10249,162.1177c17.5332,18.68753-7.7207,31.50192-33.4863,33.74222-12.65819,1.1015-25.4394-.3496-33.334-4.9072a48.75382,48.75382,0,0,1-11.0634-9.39162q-.6915.87589-1.3682,1.79293c3.8457,5.31839,7.6348,9.36329,10.4648,10.99607,7.7705,4.48832,20.8828,5.81542,34.0332,4.544C353.76069,196.24272,381.34469,182.29933,361.10249,162.1177Z" transform="translate(-197.79834 -110.20998)"/><path class="cls-18" d="M361.10249,162.1177c28.5996,29.166-44.35149,45.26272-68.3212,31.42382-2.8145-1.625-6.6084-5.5879-10.4766-10.79689-.1504.2032-.30369.4034-.4541.6094,3.8457,5.31839,7.6348,9.36329,10.4648,10.99607C316.28419,208.19,391.05759,191.981,361.10249,162.1177Z" transform="translate(-197.79834 -110.20998)"/><path class="cls-19" d="M368.77639,185.62753c-5.85939,14.49119-31.7832,19.98429-46.295,21.10739-10.2207.7929-25.5546.4248-34.5605-4.7754-2.6172-1.5098-6.4111-5.1406-10.3711-10.043-1.0654,1.8867-2.0596,3.80858-2.9824,5.75,2.7734,3.4414,6.4912,7.4844,10.2558,9.6582,8.7129,5.0313,24.4141,5.48438,34.3887,5.0166C336.47359,211.53472,364.94819,205.75052,368.77639,185.62753Z" transform="translate(-197.79834 -110.20998)"/><path class="cls-1" d="M219.83936,260.25051a3.54532,3.54532,0,0,1-1.14014-.73047,3.27775,3.27775,0,0,1-.75733-1.10938,3.81089,3.81089,0,0,1,0-2.81787,3.48539,3.48539,0,0,1,.75733-1.146,3.66124,3.66124,0,0,1,1.14014-.77393,3.54168,3.54168,0,0,1,1.43261-.28467,3.71818,3.71818,0,0,1,1.68018.35986,2.8918,2.8918,0,0,1,1.13965.99024L223.147,255.773l-.08984.105-.12012-.08985a1.07852,1.07852,0,0,0-.03027-.24755.76543.76543,0,0,0-.19483-.30762,1.44525,1.44525,0,0,0-.62988-.38233,2.93681,2.93681,0,0,0-.79492-.09765,1.72672,1.72672,0,0,0-.71289.15088,1.9096,1.9096,0,0,0-1.02734,1.12744,2.83022,2.83022,0,0,0-.14991.96191,2.36568,2.36568,0,0,0,.15723.8833,2.117,2.117,0,0,0,.42041.6753,1.81084,1.81084,0,0,0,.61475.43066,1.86672,1.86672,0,0,0,.74267.15088,2.12664,2.12664,0,0,0,.61475-.09033,2.35452,2.35452,0,0,0,.59277-.27735,2.32792,2.32792,0,0,0,.54736-.50244l.94483,1.08008a3.27711,3.27711,0,0,1-1.29.89209,4.1727,4.1727,0,0,1-1.48486.27783A3.7678,3.7678,0,0,1,219.83936,260.25051Z" transform="translate(-197.79834 -110.20998)"/><path class="cls-1" d="M227.76709,260.5132a2.81571,2.81571,0,0,1-.79541-.10986,2.03885,2.03885,0,0,1-1.19238-.91358,2.899,2.899,0,0,1-.33741-.8413,4.7129,4.7129,0,0,1-.12011-1.11866v-3.9917h1.71v3.96778a3.30743,3.30743,0,0,0,.07519.76318,1.339,1.339,0,0,0,.2251.5083.87775.87775,0,0,0,.35254.28369,1.068,1.068,0,0,0,.42725.08692,1.4918,1.4918,0,0,0,.57763-.10889,1.19155,1.19155,0,0,0,.4502-.32715,1.55947,1.55947,0,0,0,.29248-.54492,2.559,2.559,0,0,0,.105-.77734V253.5381h1.69482v5.76416q0,.32447.02246.582a1.697,1.697,0,0,0,.12745.50878h-1.54493a1.3179,1.3179,0,0,1-.105-.31982,2.33393,2.33393,0,0,1-.03759-.32812c-.00489-.11231-.00733-.21583-.00733-.312a2.62093,2.62093,0,0,1-.375.45752,2.12423,2.12423,0,0,1-.45752.33741,2.40662,2.40662,0,0,1-.5249.21A2.16165,2.16165,0,0,1,227.76709,260.5132Z" transform="translate(-197.79834 -110.20998)"/><path class="cls-1" d="M233.42188,253.5381h1.75488l-.01465,1.96485-.19531-.11963a2.24962,2.24962,0,0,1,.26269-.8252,2.37744,2.37744,0,0,1,.50977-.62988,2.13544,2.13544,0,0,1,.67529-.40527,2.17982,2.17982,0,0,1,.75733-.13477,2.84526,2.84526,0,0,1,1.05761.1875,2.50946,2.50946,0,0,1,.87744.60742l-.72021,1.42481-.04492.12012-.13477-.06006c-.03027-.07959-.06006-.16211-.09033-.24756a.80869.80869,0,0,0-.22461-.29248,1.72506,1.72506,0,0,0-.44287-.25489,1.37715,1.37715,0,0,0-.50244-.08984,2.04593,2.04593,0,0,0-.68994.11719,1.52187,1.52187,0,0,0-.57764.36621,1.73954,1.73954,0,0,0-.38965.63721,2.64843,2.64843,0,0,0-.14258.915v3.57421h-1.72509Z" transform="translate(-197.79834 -110.20998)"/><path class="cls-1" d="M240.92188,253.5381h1.75488l-.01465,1.96485-.19531-.11963a2.24962,2.24962,0,0,1,.26269-.8252,2.37744,2.37744,0,0,1,.50977-.62988,2.13544,2.13544,0,0,1,.67529-.40527,2.17982,2.17982,0,0,1,.75733-.13477,2.84526,2.84526,0,0,1,1.05761.1875,2.50946,2.50946,0,0,1,.87744.60742l-.72021,1.42481-.04492.12012-.13477-.06006c-.03027-.07959-.06006-.16211-.09033-.24756a.80869.80869,0,0,0-.22461-.29248,1.72506,1.72506,0,0,0-.44287-.25489,1.37715,1.37715,0,0,0-.50244-.08984,2.04593,2.04593,0,0,0-.68994.11719,1.52187,1.52187,0,0,0-.57764.36621,1.73954,1.73954,0,0,0-.38965.63721,2.64843,2.64843,0,0,0-.14258.915v3.57421h-1.72509Z" transform="translate(-197.79834 -110.20998)"/><path class="cls-1" d="M251.15186,260.5132a3.989,3.989,0,0,1-1.38721-.23437,3.2014,3.2014,0,0,1-1.11035-.68018,2.966,2.966,0,0,1-.72754-1.10449,4.11029,4.11029,0,0,1-.25488-1.49268,4.26813,4.26813,0,0,1,.25488-1.521,3.37384,3.37384,0,0,1,.69775-1.14112,2.90911,2.90911,0,0,1,1.04248-.71,3.4291,3.4291,0,0,1,1.29-.24121,3.21524,3.21524,0,0,1,1.15479.20606,2.64728,2.64728,0,0,1,.95263.626,3.00614,3.00614,0,0,1,.65235,1.04541,4.03329,4.03329,0,0,1,.24023,1.45069c0,.09814-.00293.21582-.00781.35351-.00488.13721-.0127.25537-.02246.353h-4.61963a2.07634,2.07634,0,0,0,.19482.80029,1.56585,1.56585,0,0,0,.43506.54541,1.90181,1.90181,0,0,0,.6001.31836,2.23555,2.23555,0,0,0,.68994.106,3.01178,3.01178,0,0,0,.60742-.05957,1.8744,1.8744,0,0,0,.55518-.21045,2.3802,2.3802,0,0,0,.50244-.38965l.86963.83984a3.25359,3.25359,0,0,1-.74219.65235,2.872,2.872,0,0,1-.88525.375A4.21767,4.21767,0,0,1,251.15186,260.5132Zm-1.815-4.36523h2.97022a1.803,1.803,0,0,0-.09766-.6128,1.26508,1.26508,0,0,0-.27734-.45654,1.14276,1.14276,0,0,0-.44287-.27783,1.81516,1.81516,0,0,0-.60742-.09277,1.902,1.902,0,0,0-.54737.07861,1.24491,1.24491,0,0,0-.47265.26367,1.48,1.48,0,0,0-.34473.45606A1.95054,1.95054,0,0,0,249.33691,256.148Z" transform="translate(-197.79834 -110.20998)"/><path class="cls-1" d="M255.41211,260.39308v-6.855h1.69482v.9751a3.86482,3.86482,0,0,1,.55518-.585,2.30672,2.30672,0,0,1,.66748-.39746,2.15188,2.15188,0,0,1,.78711-.14258,2.2528,2.2528,0,0,1,1.125.28711,2.06948,2.06948,0,0,1,.82519.91943,3.74875,3.74875,0,0,1,.315,1.66309v4.13525H259.687v-4.08837a2.92059,2.92059,0,0,0-.12012-.92286,1.02913,1.02913,0,0,0-.35253-.52.90882.90882,0,0,0-.54737-.16894,1.52706,1.52706,0,0,0-1.06494.43994,1.69169,1.69169,0,0,0-.36035.52,1.64842,1.64842,0,0,0-.13477.68115v4.05908Z" transform="translate(-197.79834 -110.20998)"/><path class="cls-1" d="M264.83936,260.25051a3.54532,3.54532,0,0,1-1.14014-.73047,3.27775,3.27775,0,0,1-.75733-1.10938,3.81089,3.81089,0,0,1,0-2.81787,3.48539,3.48539,0,0,1,.75733-1.146,3.66124,3.66124,0,0,1,1.14014-.77393,3.54168,3.54168,0,0,1,1.43261-.28467,3.71818,3.71818,0,0,1,1.68018.35986,2.8918,2.8918,0,0,1,1.13965.99024L268.147,255.773l-.08984.105-.12012-.08985a1.07852,1.07852,0,0,0-.03027-.24755.76543.76543,0,0,0-.19483-.30762,1.44525,1.44525,0,0,0-.62988-.38233,2.93681,2.93681,0,0,0-.79492-.09765,1.72672,1.72672,0,0,0-.71289.15088,1.9096,1.9096,0,0,0-1.02734,1.12744,2.83022,2.83022,0,0,0-.14991.96191,2.36568,2.36568,0,0,0,.15723.8833,2.117,2.117,0,0,0,.42041.6753,1.81084,1.81084,0,0,0,.61475.43066,1.86672,1.86672,0,0,0,.74267.15088,2.12664,2.12664,0,0,0,.61475-.09033,2.35452,2.35452,0,0,0,.59277-.27735,2.32792,2.32792,0,0,0,.54736-.50244l.94483,1.08008a3.27711,3.27711,0,0,1-1.29.89209,4.1727,4.1727,0,0,1-1.48486.27783A3.7678,3.7678,0,0,1,264.83936,260.25051Z" transform="translate(-197.79834 -110.20998)"/><path class="cls-1" d="M270.84668,260.39308v-1.335h1.71045v-4.18506H270.937v-1.335h3.33008v5.52h1.56006v1.335Zm2.49023-8.29492a1.04948,1.04948,0,0,1-.75-.30029,1.01406,1.01406,0,0,1-.01513-1.45459,1.1176,1.1176,0,0,1,1.50781.01465.96536.96536,0,0,1,0,1.43994A1.059,1.059,0,0,1,273.33691,252.09816Z" transform="translate(-197.79834 -110.20998)"/><path class="cls-1" d="M281.15186,260.5132a3.989,3.989,0,0,1-1.38721-.23437,3.2014,3.2014,0,0,1-1.11035-.68018,2.966,2.966,0,0,1-.72754-1.10449,4.11029,4.11029,0,0,1-.25488-1.49268,4.26813,4.26813,0,0,1,.25488-1.521,3.37384,3.37384,0,0,1,.69775-1.14112,2.90911,2.90911,0,0,1,1.04248-.71,3.4291,3.4291,0,0,1,1.29-.24121,3.21524,3.21524,0,0,1,1.15479.20606,2.64728,2.64728,0,0,1,.95263.626,3.00614,3.00614,0,0,1,.65235,1.04541,4.03329,4.03329,0,0,1,.24023,1.45069c0,.09814-.00293.21582-.00781.35351-.00488.13721-.0127.25537-.02246.353h-4.61963a2.07634,2.07634,0,0,0,.19482.80029,1.56585,1.56585,0,0,0,.43506.54541,1.90181,1.90181,0,0,0,.6001.31836,2.23555,2.23555,0,0,0,.68994.106,3.01178,3.01178,0,0,0,.60742-.05957,1.8744,1.8744,0,0,0,.55518-.21045,2.3802,2.3802,0,0,0,.50244-.38965l.86963.83984a3.25359,3.25359,0,0,1-.74219.65235,2.872,2.872,0,0,1-.88525.375A4.21767,4.21767,0,0,1,281.15186,260.5132Zm-1.815-4.36523h2.97022a1.803,1.803,0,0,0-.09766-.6128,1.26508,1.26508,0,0,0-.27734-.45654,1.14276,1.14276,0,0,0-.44287-.27783,1.81516,1.81516,0,0,0-.60742-.09277,1.902,1.902,0,0,0-.54737.07861,1.24491,1.24491,0,0,0-.47265.26367,1.48,1.48,0,0,0-.34473.45606A1.95054,1.95054,0,0,0,279.33691,256.148Z" transform="translate(-197.79834 -110.20998)"/><path class="cls-1" d="M287.25684,260.40041a4.14553,4.14553,0,0,1-1.08008-.35986,3.90977,3.90977,0,0,1-.915-.6377l.75-1.37988.06006-.12012.12011.0752c.02979.07031.06006.14746.08985.23242a.803.803,0,0,0,.2251.29248,2.90662,2.90662,0,0,0,.855.49511,3.24282,3.24282,0,0,0,1.14013.18018,2.40833,2.40833,0,0,0,.71241-.09131,1.05026,1.05026,0,0,0,.45019-.25146.51326.51326,0,0,0,.15723-.37061.53129.53129,0,0,0-.08985-.30713.77.77,0,0,0-.28515-.23437,3.90539,3.90539,0,0,0-.50977-.21192q-.31494-.10986-.75-.2417a6.26457,6.26457,0,0,1-1.32763-.47509,2.3713,2.3713,0,0,1-.86231-.69483,1.566,1.566,0,0,1-.30029-.95117,1.61216,1.61216,0,0,1,.3374-1.00928,2.27018,2.27018,0,0,1,.95264-.69531,3.77739,3.77739,0,0,1,1.45507-.25586,4.84771,4.84771,0,0,1,.8252.06738,4.41147,4.41147,0,0,1,.74219.19483,3.17221,3.17221,0,0,1,.66015.33008,3.70635,3.70635,0,0,1,.57764.47265l-.82519,1.15479-.105.12012-.105-.08985a.787.787,0,0,0-.06738-.23242,1.01449,1.01449,0,0,0-.23242-.27783,2.025,2.025,0,0,0-.68262-.33008,2.86086,2.86086,0,0,0-.75781-.105,2.27657,2.27657,0,0,0-.87744.15332.5034.5034,0,0,0-.36719.47314.46.46,0,0,0,.165.34375,1.63727,1.63727,0,0,0,.54736.29248q.38233.13917,1.0127.3003a6.33793,6.33793,0,0,1,1.37207.50439,2.00945,2.00945,0,0,1,.78027.68067,1.69773,1.69773,0,0,1,.24756.92138,1.90067,1.90067,0,0,1-.33008,1.06836,2.25172,2.25172,0,0,1-.96777.79,3.79149,3.79149,0,0,1-1.58252.29248A6.40565,6.40565,0,0,1,287.25684,260.40041Z" transform="translate(-197.79834 -110.20998)"/><path class="cls-1" d="M199.79346,120.55226a4.14479,4.14479,0,0,1-1.08008-.35986,3.90973,3.90973,0,0,1-.915-.63769l.75-1.37989.06006-.12011.12012.07519c.02978.07031.06.14746.08984.23242a.803.803,0,0,0,.2251.29248,2.90687,2.90687,0,0,0,.855.49512,3.24282,3.24282,0,0,0,1.14013.18018,2.40866,2.40866,0,0,0,.71241-.09131,1.05027,1.05027,0,0,0,.45019-.25147.51324.51324,0,0,0,.15723-.3706.53129.53129,0,0,0-.08985-.30713.77005.77005,0,0,0-.28515-.23438,3.90355,3.90355,0,0,0-.50977-.21191q-.31494-.10986-.75-.2417a6.26456,6.26456,0,0,1-1.32763-.4751,2.37128,2.37128,0,0,1-.86231-.69482,1.566,1.566,0,0,1-.30029-.95117,1.61216,1.61216,0,0,1,.3374-1.00928,2.27009,2.27009,0,0,1,.95264-.69531,3.77741,3.77741,0,0,1,1.45508-.25586,4.84767,4.84767,0,0,1,.82519.06738,4.41026,4.41026,0,0,1,.74219.19482,3.1727,3.1727,0,0,1,.66015.33008,3.706,3.706,0,0,1,.57764.47266l-.82519,1.15478-.105.12012-.105-.08984a.78726.78726,0,0,0-.06739-.23242,1.0145,1.0145,0,0,0-.23242-.27784,2.02492,2.02492,0,0,0-.68262-.33007,2.86047,2.86047,0,0,0-.75781-.105,2.27657,2.27657,0,0,0-.87744.15332.50341.50341,0,0,0-.36719.47315.46.46,0,0,0,.165.34375,1.63745,1.63745,0,0,0,.54736.29248q.38234.13916,1.0127.30029a6.33842,6.33842,0,0,1,1.37207.5044,2.00951,2.00951,0,0,1,.78027.68066,1.69777,1.69777,0,0,1,.24756.92139,1.90067,1.90067,0,0,1-.33008,1.06836,2.25186,2.25186,0,0,1-.96777.79,3.79161,3.79161,0,0,1-1.58252.29248A6.40483,6.40483,0,0,1,199.79346,120.55226Z" transform="translate(-197.79834 -110.20998)"/><path class="cls-1" d="M208.68848,120.66506a3.989,3.989,0,0,1-1.38721-.23438,3.20123,3.20123,0,0,1-1.11035-.68017,2.966,2.966,0,0,1-.72754-1.1045,4.11024,4.11024,0,0,1-.25488-1.49267,4.26819,4.26819,0,0,1,.25488-1.521,3.3737,3.3737,0,0,1,.69775-1.14111,2.909,2.909,0,0,1,1.04248-.71,3.42894,3.42894,0,0,1,1.29-.24121,3.21524,3.21524,0,0,1,1.15479.20605,2.64731,2.64731,0,0,1,.95263.626,3.00605,3.00605,0,0,1,.65235,1.04541,4.03323,4.03323,0,0,1,.24023,1.45068c0,.09815-.00293.21582-.00781.35352-.00488.1372-.0127.25537-.02246.353h-4.61963a2.07634,2.07634,0,0,0,.19482.80029,1.56585,1.56585,0,0,0,.43506.54541,1.90192,1.90192,0,0,0,.6001.31836,2.23555,2.23555,0,0,0,.68994.106,3.01178,3.01178,0,0,0,.60742-.05957,1.87437,1.87437,0,0,0,.55518-.21044,2.38053,2.38053,0,0,0,.50244-.38965l.86963.83984a3.25355,3.25355,0,0,1-.74219.65234,2.87146,2.87146,0,0,1-.88525.375A4.21714,4.21714,0,0,1,208.68848,120.66506Zm-1.81494-4.36524h2.97021a1.80272,1.80272,0,0,0-.09766-.61279,1.265,1.265,0,0,0-.27734-.45654,1.1429,1.1429,0,0,0-.44287-.27784,1.81516,1.81516,0,0,0-.60742-.09277,1.90241,1.90241,0,0,0-.54737.07861,1.2448,1.2448,0,0,0-.47265.26368,1.48,1.48,0,0,0-.34473.45605A1.95037,1.95037,0,0,0,206.87354,116.29982Z" transform="translate(-197.79834 -110.20998)"/><path class="cls-1" d="M213.4585,113.69h1.75488l-.01465,1.96484-.19531-.11963a2.24963,2.24963,0,0,1,.26269-.82519,2.37712,2.37712,0,0,1,.50977-.62988,2.13547,2.13547,0,0,1,.67529-.40528,2.18,2.18,0,0,1,.75733-.13476,2.84526,2.84526,0,0,1,1.05761.1875,2.50924,2.50924,0,0,1,.87744.60742l-.72021,1.4248-.04492.12012-.13477-.06006c-.03027-.07959-.06006-.16211-.09033-.24756a.80857.80857,0,0,0-.22461-.29248,1.72531,1.72531,0,0,0-.44287-.25488,1.37694,1.37694,0,0,0-.50244-.08984,2.04617,2.04617,0,0,0-.68994.11718,1.522,1.522,0,0,0-.57764.36622,1.73941,1.73941,0,0,0-.38965.6372,2.64847,2.64847,0,0,0-.14258.915v3.57422H213.4585Z" transform="translate(-197.79834 -110.20998)"/><path class="cls-1" d="M222.68359,120.54494l-2.625-6.855h1.77l1.78516,4.90918h-.24023l.94482-2.24072a10.90761,10.90761,0,0,0,.45752-1.38575,7.46926,7.46926,0,0,0,.21777-1.28271h1.58985a6.58667,6.58667,0,0,1-.32227,1.37109q-.24756.72218-.5625,1.48877l-1.68018,3.99512Z" transform="translate(-197.79834 -110.20998)"/><path class="cls-1" d="M228.3833,120.54494V119.21h1.71045v-4.18506h-1.62012V113.69h3.33008v5.52h1.56006v1.335Zm2.49024-8.29492a1.04945,1.04945,0,0,1-.75-.30029,1.014,1.014,0,0,1-.01514-1.45459,1.11762,1.11762,0,0,1,1.50781.01464.96537.96537,0,0,1,0,1.43995A1.059,1.059,0,0,1,230.87354,112.25Z" transform="translate(-197.79834 -110.20998)"/><path class="cls-1" d="M237.376,120.40236a3.54509,3.54509,0,0,1-1.14014-.73047,3.27754,3.27754,0,0,1-.75732-1.10937,3.81076,3.81076,0,0,1,0-2.81787,3.48525,3.48525,0,0,1,.75732-1.146,3.6615,3.6615,0,0,1,1.14014-.77392,3.54155,3.54155,0,0,1,1.43261-.28467,3.71805,3.71805,0,0,1,1.68018.35986,2.8917,2.8917,0,0,1,1.13965.99023l-.94483,1.03467-.08984.105-.12012-.08984a1.07854,1.07854,0,0,0-.03027-.24756.76556.76556,0,0,0-.19482-.30762,1.44522,1.44522,0,0,0-.62989-.38232,2.93674,2.93674,0,0,0-.79492-.09766,1.72688,1.72688,0,0,0-.71289.15088,1.9096,1.9096,0,0,0-1.02734,1.12744,2.83032,2.83032,0,0,0-.14991.96192,2.36575,2.36575,0,0,0,.15723.8833,2.11686,2.11686,0,0,0,.42041.67529,1.811,1.811,0,0,0,.61475.43067,1.86688,1.86688,0,0,0,.74267.15087,2.12664,2.12664,0,0,0,.61475-.09033,2.35448,2.35448,0,0,0,.59277-.27734,2.32815,2.32815,0,0,0,.54737-.50244l.94482,1.08008a3.27732,3.27732,0,0,1-1.29.89209,4.17292,4.17292,0,0,1-1.48486.27783A3.76764,3.76764,0,0,1,237.376,120.40236Z" transform="translate(-197.79834 -110.20998)"/><path class="cls-1" d="M246.18848,120.66506a3.989,3.989,0,0,1-1.38721-.23438,3.20123,3.20123,0,0,1-1.11035-.68017,2.966,2.966,0,0,1-.72754-1.1045,4.11024,4.11024,0,0,1-.25488-1.49267,4.26819,4.26819,0,0,1,.25488-1.521,3.3737,3.3737,0,0,1,.69775-1.14111,2.909,2.909,0,0,1,1.04248-.71,3.42894,3.42894,0,0,1,1.29-.24121,3.21524,3.21524,0,0,1,1.15479.20605,2.64731,2.64731,0,0,1,.95263.626,3.00605,3.00605,0,0,1,.65235,1.04541,4.03323,4.03323,0,0,1,.24023,1.45068c0,.09815-.00293.21582-.00781.35352-.00488.1372-.0127.25537-.02246.353h-4.61963a2.07634,2.07634,0,0,0,.19482.80029,1.56585,1.56585,0,0,0,.43506.54541,1.90192,1.90192,0,0,0,.6001.31836,2.23555,2.23555,0,0,0,.68994.106,3.01178,3.01178,0,0,0,.60742-.05957,1.87437,1.87437,0,0,0,.55518-.21044,2.38053,2.38053,0,0,0,.50244-.38965l.86963.83984a3.25355,3.25355,0,0,1-.74219.65234,2.87146,2.87146,0,0,1-.88525.375A4.21714,4.21714,0,0,1,246.18848,120.66506Zm-1.81494-4.36524h2.97021a1.80272,1.80272,0,0,0-.09766-.61279,1.265,1.265,0,0,0-.27734-.45654,1.1429,1.1429,0,0,0-.44287-.27784,1.81516,1.81516,0,0,0-.60742-.09277,1.90241,1.90241,0,0,0-.54737.07861,1.2448,1.2448,0,0,0-.47265.26368,1.48,1.48,0,0,0-.34473.45605A1.95037,1.95037,0,0,0,244.37354,116.29982Z" transform="translate(-197.79834 -110.20998)"/><path class="cls-1" d="M252.29346,120.55226a4.14479,4.14479,0,0,1-1.08008-.35986,3.90973,3.90973,0,0,1-.915-.63769l.75-1.37989.06006-.12011.12012.07519c.02978.07031.06.14746.08984.23242a.803.803,0,0,0,.2251.29248,2.90687,2.90687,0,0,0,.855.49512,3.24282,3.24282,0,0,0,1.14013.18018,2.40866,2.40866,0,0,0,.71241-.09131,1.05027,1.05027,0,0,0,.45019-.25147.51324.51324,0,0,0,.15723-.3706.53129.53129,0,0,0-.08985-.30713.77005.77005,0,0,0-.28515-.23438,3.90355,3.90355,0,0,0-.50977-.21191q-.31494-.10986-.75-.2417a6.26456,6.26456,0,0,1-1.32763-.4751,2.37128,2.37128,0,0,1-.86231-.69482,1.566,1.566,0,0,1-.30029-.95117,1.61216,1.61216,0,0,1,.3374-1.00928,2.27009,2.27009,0,0,1,.95264-.69531,3.77741,3.77741,0,0,1,1.45508-.25586,4.84767,4.84767,0,0,1,.82519.06738,4.41026,4.41026,0,0,1,.74219.19482,3.1727,3.1727,0,0,1,.66015.33008,3.706,3.706,0,0,1,.57764.47266l-.82519,1.15478-.105.12012-.105-.08984a.78726.78726,0,0,0-.06739-.23242,1.0145,1.0145,0,0,0-.23242-.27784,2.02492,2.02492,0,0,0-.68262-.33007,2.86047,2.86047,0,0,0-.75781-.105,2.27657,2.27657,0,0,0-.87744.15332.50341.50341,0,0,0-.36719.47315.46.46,0,0,0,.165.34375,1.63745,1.63745,0,0,0,.54736.29248q.38234.13916,1.0127.30029a6.33842,6.33842,0,0,1,1.37207.5044,2.00951,2.00951,0,0,1,.78027.68066,1.69777,1.69777,0,0,1,.24756.92139,1.90067,1.90067,0,0,1-.33008,1.06836,2.25186,2.25186,0,0,1-.96777.79,3.79161,3.79161,0,0,1-1.58252.29248A6.40483,6.40483,0,0,1,252.29346,120.55226Z" transform="translate(-197.79834 -110.20998)"/></svg>