<svg xmlns="http://www.w3.org/2000/svg" xmlns:xlink="http://www.w3.org/1999/xlink" viewBox="0 0 48 26"><defs><style>.cls-1{fill:url(#New_Gradient_Swatch_1);}.cls-2{fill:url(#New_Gradient_Swatch_1-2);}.cls-3{fill:#ecf0f1;}.cls-4{fill:url(#New_Gradient_Swatch_1-3);}.cls-5{fill:url(#New_Gradient_Swatch_1-4);}.cls-6{fill:#a9cf54;}</style><linearGradient id="New_Gradient_Swatch_1" y1="13" x2="18" y2="13" gradientUnits="userSpaceOnUse"><stop offset="0" stop-color="#8fd3f4"/><stop offset="1" stop-color="#84fab0"/></linearGradient><linearGradient id="New_Gradient_Swatch_1-2" x1="15" y1="1.5" y2="1.5" xlink:href="#New_Gradient_Swatch_1"/><linearGradient id="New_Gradient_Swatch_1-3" x1="30" y1="13" x2="48" y2="13" xlink:href="#New_Gradient_Swatch_1"/><linearGradient id="New_Gradient_Swatch_1-4" x1="45" y1="1.5" x2="48" y2="1.5" xlink:href="#New_Gradient_Swatch_1"/></defs><g id="Layer_2" data-name="Layer 2"><g id="Layer_1-2" data-name="Layer 1"><g id="_05_transaction" data-name="05_transaction"><path class="cls-1" d="M16,26H2a2,2,0,0,1-2-2V2A2,2,0,0,1,2,0H15l3,3V24A2,2,0,0,1,16,26Z"/><polygon class="cls-2" points="15 3 18 3 15 0 15 3"/><path class="cls-3" d="M11,7H3A1,1,0,0,1,3,5h8a1,1,0,0,1,0,2Z"/><path class="cls-3" d="M13,14H3a1,1,0,0,1,0-2H13a1,1,0,0,1,0,2Z"/><path class="cls-3" d="M9,21H3a1,1,0,0,1,0-2H9a1,1,0,0,1,0,2Z"/><path class="cls-4" d="M46,26H32a2,2,0,0,1-2-2V2a2,2,0,0,1,2-2H45l3,3V24A2,2,0,0,1,46,26Z"/><polygon class="cls-5" points="45 3 48 3 45 0 45 3"/><path class="cls-3" d="M41,7H33a1,1,0,0,1,0-2h8a1,1,0,0,1,0,2Z"/><path class="cls-3" d="M43,14H33a1,1,0,0,1,0-2H43a1,1,0,0,1,0,2Z"/><path class="cls-3" d="M39,21H33a1,1,0,0,1,0-2h6a1,1,0,0,1,0,2Z"/><path class="cls-6" d="M19,6V8a1,1,0,0,0,1,1h5V5H20A1,1,0,0,0,19,6Z"/><polygon class="cls-6" points="25 3 25 11 29 7 25 3"/><path class="cls-6" d="M29,18v2a1,1,0,0,1-1,1H23V17h5A1,1,0,0,1,29,18Z"/><polygon class="cls-6" points="23 15 23 23 19 19 23 15"/></g></g></g></svg>