<svg xmlns="http://www.w3.org/2000/svg" xmlns:xlink="http://www.w3.org/1999/xlink" viewBox="0 0 48 48"><defs><style>.cls-1{fill:url(#New_Gradient_Swatch_1);}.cls-2{fill:url(#New_Gradient_Swatch_1-2);}.cls-3{fill:url(#New_Gradient_Swatch_1-3);}.cls-4{fill:url(#New_Gradient_Swatch_1-4);}.cls-5{fill:url(#New_Gradient_Swatch_1-5);}.cls-6{fill:url(#New_Gradient_Swatch_1-6);}.cls-7{fill:url(#New_Gradient_Swatch_1-7);}.cls-8{fill:url(#New_Gradient_Swatch_1-8);}.cls-9{fill:#2c3e50;}.cls-10{fill:url(#New_Gradient_Swatch_1-9);}.cls-11{fill:url(#New_Gradient_Swatch_1-10);}.cls-12{fill:url(#New_Gradient_Swatch_1-11);}.cls-13{fill:url(#New_Gradient_Swatch_1-12);}.cls-14{fill:url(#New_Gradient_Swatch_1-13);}.cls-15{fill:url(#New_Gradient_Swatch_1-14);}</style><linearGradient id="New_Gradient_Swatch_1" x1="12" y1="16.5" x2="21" y2="16.5" gradientUnits="userSpaceOnUse"><stop offset="0" stop-color="#8fd3f4"/><stop offset="1" stop-color="#84fab0"/></linearGradient><linearGradient id="New_Gradient_Swatch_1-2" x1="27" y1="16" x2="37" y2="16" xlink:href="#New_Gradient_Swatch_1"/><linearGradient id="New_Gradient_Swatch_1-3" x1="27" y1="32.5" x2="38" y2="32.5" xlink:href="#New_Gradient_Swatch_1"/><linearGradient id="New_Gradient_Swatch_1-4" x1="11" y1="32" y2="32" xlink:href="#New_Gradient_Swatch_1"/><linearGradient id="New_Gradient_Swatch_1-5" x1="23" y1="13.5" x2="25" y2="13.5" xlink:href="#New_Gradient_Swatch_1"/><linearGradient id="New_Gradient_Swatch_1-6" x1="23" y1="32" x2="25" y2="32" xlink:href="#New_Gradient_Swatch_1"/><linearGradient id="New_Gradient_Swatch_1-7" x1="29" y1="24" x2="35" y2="24" xlink:href="#New_Gradient_Swatch_1"/><linearGradient id="New_Gradient_Swatch_1-8" x1="9" y1="24" x2="19" y2="24" xlink:href="#New_Gradient_Swatch_1"/><linearGradient id="New_Gradient_Swatch_1-9" x1="20" y1="39" x2="28" y2="39" xlink:href="#New_Gradient_Swatch_1"/><linearGradient id="New_Gradient_Swatch_1-10" x1="34" y1="24" x2="44" y2="24" xlink:href="#New_Gradient_Swatch_1"/><linearGradient id="New_Gradient_Swatch_1-11" x1="0" y1="24" x2="10" y2="24" xlink:href="#New_Gradient_Swatch_1"/><linearGradient id="New_Gradient_Swatch_1-12" x1="3" y1="9" x2="15" y2="9" xlink:href="#New_Gradient_Swatch_1"/><linearGradient id="New_Gradient_Swatch_1-13" x1="35" y1="41" x2="47" y2="41" xlink:href="#New_Gradient_Swatch_1"/><linearGradient id="New_Gradient_Swatch_1-14" x1="18" y1="24" x2="30" y2="24" xlink:href="#New_Gradient_Swatch_1"/></defs><g id="Layer_2" data-name="Layer 2"><g id="Layer_1-2" data-name="Layer 1"><g id="_11_decentralize" data-name="11_decentralize"><path class="cls-1" d="M20,21a1,1,0,0,1-.71-.29l-7-7a1,1,0,0,1,1.42-1.42l7,7a1,1,0,0,1,0,1.42A1,1,0,0,1,20,21Z"/><path class="cls-2" d="M28,21a1,1,0,0,1-.71-.29,1,1,0,0,1,0-1.42l8-8a1,1,0,0,1,1.42,1.42l-8,8A1,1,0,0,1,28,21Z"/><path class="cls-3" d="M37,38a1,1,0,0,1-.71-.29l-9-9a1,1,0,0,1,1.42-1.42l9,9a1,1,0,0,1,0,1.42A1,1,0,0,1,37,38Z"/><path class="cls-4" d="M12,37a1,1,0,0,1-.71-.29,1,1,0,0,1,0-1.42l8-8a1,1,0,0,1,1.42,1.42l-8,8A1,1,0,0,1,12,37Z"/><path class="cls-5" d="M24,19a1,1,0,0,1-1-1V9a1,1,0,0,1,2,0v9A1,1,0,0,1,24,19Z"/><path class="cls-6" d="M24,36a1,1,0,0,1-1-1V29a1,1,0,0,1,2,0v6A1,1,0,0,1,24,36Z"/><path class="cls-7" d="M34,25H30a1,1,0,0,1,0-2h4a1,1,0,0,1,0,2Z"/><path class="cls-8" d="M18,25H10a1,1,0,0,1,0-2h8a1,1,0,0,1,0,2Z"/><circle class="cls-9" cx="24" cy="5" r="4"/><circle class="cls-10" cx="24" cy="39" r="4"/><circle class="cls-11" cx="39" cy="24" r="5"/><circle class="cls-12" cx="5" cy="24" r="5"/><circle class="cls-9" cx="7" cy="41" r="7"/><circle class="cls-13" cx="9" cy="9" r="6"/><circle class="cls-14" cx="41" cy="41" r="6"/><circle class="cls-9" cx="41" cy="7" r="7"/><path class="cls-15" d="M24,30a6,6,0,1,1,6-6A6,6,0,0,1,24,30Zm0-10a4,4,0,1,0,4,4A4,4,0,0,0,24,20Z"/></g></g></g></svg>