<svg xmlns="http://www.w3.org/2000/svg" xmlns:xlink="http://www.w3.org/1999/xlink" viewBox="0 0 48 48"><defs><style>.cls-1{fill:url(#New_Gradient_Swatch_1);}.cls-2{fill:url(#New_Gradient_Swatch_1-2);}.cls-3{fill:url(#New_Gradient_Swatch_1-3);}.cls-4{fill:#ecf0f1;}.cls-5{fill:url(#New_Gradient_Swatch_1-4);}.cls-6{fill:url(#New_Gradient_Swatch_1-5);}.cls-7{fill:#2c3e50;}.cls-8{fill:url(#New_Gradient_Swatch_1-6);}.cls-9{fill:url(#New_Gradient_Swatch_1-7);}.cls-10{fill:url(#New_Gradient_Swatch_1-8);}.cls-11{fill:url(#New_Gradient_Swatch_1-9);}.cls-12{fill:url(#New_Gradient_Swatch_1-10);}.cls-13{fill:url(#New_Gradient_Swatch_1-11);}</style><linearGradient id="New_Gradient_Swatch_1" x1="3" y1="24" x2="45" y2="24" gradientUnits="userSpaceOnUse"><stop offset="0" stop-color="#8fd3f4"/><stop offset="1" stop-color="#84fab0"/></linearGradient><linearGradient id="New_Gradient_Swatch_1-2" x1="17" y1="24" x2="31" y2="24" xlink:href="#New_Gradient_Swatch_1"/><linearGradient id="New_Gradient_Swatch_1-3" x1="29" y1="16" x2="31" y2="16" xlink:href="#New_Gradient_Swatch_1"/><linearGradient id="New_Gradient_Swatch_1-4" x1="5" y1="37" x2="11" y2="37" xlink:href="#New_Gradient_Swatch_1"/><linearGradient id="New_Gradient_Swatch_1-5" x1="3" y1="41.5" x2="13" y2="41.5" xlink:href="#New_Gradient_Swatch_1"/><linearGradient id="New_Gradient_Swatch_1-6" x1="37" y1="37" x2="43" y2="37" xlink:href="#New_Gradient_Swatch_1"/><linearGradient id="New_Gradient_Swatch_1-7" x1="35" y1="41.5" x2="45" y2="41.5" xlink:href="#New_Gradient_Swatch_1"/><linearGradient id="New_Gradient_Swatch_1-8" x1="5" y1="5" x2="11" y2="5" xlink:href="#New_Gradient_Swatch_1"/><linearGradient id="New_Gradient_Swatch_1-9" x1="3" y1="9.5" x2="13" y2="9.5" xlink:href="#New_Gradient_Swatch_1"/><linearGradient id="New_Gradient_Swatch_1-10" x1="37" y1="5" x2="43" y2="5" xlink:href="#New_Gradient_Swatch_1"/><linearGradient id="New_Gradient_Swatch_1-11" x1="35" y1="9.5" x2="45" y2="9.5" xlink:href="#New_Gradient_Swatch_1"/></defs><g id="Layer_2" data-name="Layer 2"><g id="Layer_1-2" data-name="Layer 1"><g id="_02_confirmation" data-name="02_confirmation"><path class="cls-1" d="M24,45A21,21,0,1,1,45,24,21,21,0,0,1,24,45ZM24,5A19,19,0,1,0,43,24,19,19,0,0,0,24,5Z"/><path class="cls-2" d="M29,33H19a2,2,0,0,1-2-2V17a2,2,0,0,1,2-2H29l2,2V31A2,2,0,0,1,29,33Z"/><polygon class="cls-3" points="29 17 31 17 29 15 29 17"/><path class="cls-4" d="M27,21H21a1,1,0,0,1,0-2h6a1,1,0,0,1,0,2Z"/><path class="cls-4" d="M25,25H21a1,1,0,0,1,0-2h4a1,1,0,0,1,0,2Z"/><path class="cls-4" d="M23,29H21a1,1,0,0,1,0-2h2a1,1,0,0,1,0,2Z"/><circle class="cls-4" cx="8" cy="40" r="8"/><circle class="cls-5" cx="8" cy="37" r="3"/><path class="cls-6" d="M8,39a5,5,0,0,0-5,5H13A5,5,0,0,0,8,39Z"/><path class="cls-7" d="M5,44l2,2a1.42,1.42,0,0,0,2,0l1-1L7,42a1.42,1.42,0,0,0-2,0H5A1.42,1.42,0,0,0,5,44Z"/><path class="cls-7" d="M8,43l5-5a1.42,1.42,0,0,1,2,0h0a1.42,1.42,0,0,1,0,2l-5,5Z"/><circle class="cls-4" cx="40" cy="40" r="8"/><circle class="cls-8" cx="40" cy="37" r="3"/><path class="cls-9" d="M40,39a5,5,0,0,0-5,5H45A5,5,0,0,0,40,39Z"/><path class="cls-7" d="M37,44l2,2a1.42,1.42,0,0,0,2,0l1-1-3-3a1.42,1.42,0,0,0-2,0h0A1.42,1.42,0,0,0,37,44Z"/><path class="cls-7" d="M40,43l5-5a1.42,1.42,0,0,1,2,0h0a1.42,1.42,0,0,1,0,2l-5,5Z"/><circle class="cls-4" cx="8" cy="8" r="8"/><circle class="cls-10" cx="8" cy="5" r="3"/><path class="cls-11" d="M8,7a5,5,0,0,0-5,5H13A5,5,0,0,0,8,7Z"/><path class="cls-7" d="M5,12l2,2a1.42,1.42,0,0,0,2,0l1-1L7,10a1.42,1.42,0,0,0-2,0H5A1.42,1.42,0,0,0,5,12Z"/><path class="cls-7" d="M8,11l5-5a1.42,1.42,0,0,1,2,0h0a1.42,1.42,0,0,1,0,2l-5,5Z"/><circle class="cls-4" cx="40" cy="8" r="8"/><circle class="cls-12" cx="40" cy="5" r="3"/><path class="cls-13" d="M40,7a5,5,0,0,0-5,5H45A5,5,0,0,0,40,7Z"/><path class="cls-7" d="M37,12l2,2a1.42,1.42,0,0,0,2,0l1-1-3-3a1.42,1.42,0,0,0-2,0h0A1.42,1.42,0,0,0,37,12Z"/><path class="cls-7" d="M40,11l5-5a1.42,1.42,0,0,1,2,0h0a1.42,1.42,0,0,1,0,2l-5,5Z"/></g></g></g></svg>